<svg id="Layer_1" data-name="Layer 1" xmlns="http://www.w3.org/2000/svg" viewBox="0 0 233.44 87"><defs><style>.cls-1{fill:#0033b8;}.cls-2{fill:#999a9a;}</style></defs><title>潮健康_material</title><path class="cls-1" d="M159.19,86.72H115.55a7.18,7.18,0,0,1-7.18-7.17V42.94h-3.53V36.77h5.51a4.2,4.2,0,0,1,4.19,4.2V79.55a1,1,0,0,0,1,1h43.64Z"/><rect class="cls-1" x="119.74" y="34.44" width="30.35" height="7.2"/><rect class="cls-1" x="134.75" y="17.84" width="6.17" height="60.6"/><path class="cls-2" d="M115.13,28.75a4.44,4.44,0,1,1-4.44-4.44A4.44,4.44,0,0,1,115.13,28.75Z"/><rect class="cls-1" x="95.48" y="36.94" width="6.17" height="50.05"/><circle class="cls-2" cx="98.56" cy="28.75" r="4.44"/><path class="cls-1" d="M145.87,52.23H119.21V46.06h26.66a8,8,0,0,0,0-16H119.21V23.88h26.66a14.18,14.18,0,0,1,0,28.35Z"/><rect class="cls-1" x="119.74" y="57.11" width="39.45" height="6.17"/><rect class="cls-1" x="119.74" y="67.98" width="39.45" height="6.17"/><rect class="cls-1" x="177.8" y="46.78" width="55.64" height="6.17"/><path class="cls-1" d="M174.47,87H168.3V29.72a5.92,5.92,0,0,1,5.91-5.92h59.23V30h-59Z"/><rect class="cls-1" x="201.87" y="17.84" width="6.17" height="69.15"/><polygon class="cls-2" points="186.12 86.6 181.75 82.24 187.49 76.5 181.75 70.77 186.12 66.4 196.22 76.5 186.12 86.6"/><polygon class="cls-1" points="225.44 86.6 215.34 76.5 225.44 66.4 229.8 70.77 224.06 76.5 229.8 82.24 225.44 86.6"/><path class="cls-1" d="M216.06,64.51H177.8V58.34h38.26a8.47,8.47,0,0,0,0-16.94H177.8V35.23h38.26a14.64,14.64,0,0,1,0,29.28Z"/><rect class="cls-1" x="0.47" y="10.12" width="21.43" height="8.08"/><polygon class="cls-1" points="44.06 58.5 35.99 58.5 35.99 68.76 24.9 68.76 24.9 76.84 35.99 76.84 35.99 87.11 44.06 87.11 44.06 76.84 54 76.84 54 68.76 44.06 68.76 44.06 58.5"/><polygon class="cls-1" points="35.99 23.62 44.06 23.62 44.06 18.2 54 18.2 54 10.12 44.06 10.12 44.06 1.2 35.99 1.2 35.99 10.12 24.9 10.12 24.9 18.2 35.99 18.2 35.99 23.62"/><path class="cls-1" d="M24.9,40.86h5.82a.86.86,0,0,0,.8-.54l3-7.35a1.73,1.73,0,0,1,3.28.22l4.15,16a.87.87,0,0,0,1.65.1l3-7.34a1.74,1.74,0,0,1,1.61-1.09H54V30.23A3.26,3.26,0,0,0,50.73,27H28.17a3.26,3.26,0,0,0-3.27,3.27Z"/><path class="cls-1" d="M47.37,42.27l-3,7.35a1.7,1.7,0,0,1-1.6,1.08h-.12a1.73,1.73,0,0,1-1.57-1.3L37,33.41a.86.86,0,0,0-1.64-.11l-3,7.35a1.75,1.75,0,0,1-1.61,1.08H24.9V52.36a3.27,3.27,0,0,0,3.27,3.28H50.73A3.27,3.27,0,0,0,54,52.36V41.73H48.18A.87.87,0,0,0,47.37,42.27Z"/><path class="cls-1" d="M71.18.32A13.94,13.94,0,0,0,57.26,14.24V87.11h3.61V14.24a10.32,10.32,0,0,1,20.63,0V87.12h3.6V14.24A13.93,13.93,0,0,0,71.18.32Z"/><path class="cls-1" d="M71.18,4.79a9.45,9.45,0,0,0-9.44,9.45V87.11h3.6V45.34H77V87.12h3.6V14.24A9.46,9.46,0,0,0,71.18,4.79ZM77,37.26H65.34V28.68H77ZM65.34,20.6V14.24a5.85,5.85,0,0,1,11.69,0V20.6Z"/><path class="cls-1" d="M19.46,40a2.21,2.21,0,0,1-1.58-.66l-6.79-6.79L4.3,39.35a2.24,2.24,0,0,1-3.17-3.17L9.5,27.81a2.23,2.23,0,0,1,3.17,0l8.38,8.37A2.25,2.25,0,0,1,19.46,40Z"/><path class="cls-2" d="M19.46,54.23a2.24,2.24,0,0,1-1.58-.65l-6.79-6.79L4.3,53.58a2.24,2.24,0,0,1-3.17-3.17L9.5,42a2.25,2.25,0,0,1,3.17,0l8.38,8.38a2.25,2.25,0,0,1,0,3.17A2.28,2.28,0,0,1,19.46,54.23Z"/><path class="cls-1" d="M19.46,68.46a2.21,2.21,0,0,1-1.58-.66L11.09,61,4.3,67.8a2.24,2.24,0,1,1-3.17-3.17L9.5,56.26a2.23,2.23,0,0,1,3.17,0l8.38,8.37a2.25,2.25,0,0,1-1.59,3.83Z"/><path class="cls-2" d="M19.46,82.68A2.2,2.2,0,0,1,17.88,82l-6.79-6.79L4.3,82a2.24,2.24,0,0,1-3.17-3.17L9.5,70.49a2.23,2.23,0,0,1,3.17,0l8.38,8.37a2.24,2.24,0,0,1-1.59,3.82Z"/></svg>