<svg id="Layer_1" data-name="Layer 1" xmlns="http://www.w3.org/2000/svg" viewBox="0 0 24.05 24.05"><defs><style>.cls-1{fill:#002bc1;}</style></defs><title>潮健康_material</title><path class="cls-1" d="M18.64,0H5.45A5.46,5.46,0,0,0,0,5.45V18.64a5.46,5.46,0,0,0,5.45,5.45H6.66V14.38H4.48V11.33H6.66V10.18A7,7,0,0,1,8.32,5.27a5.69,5.69,0,0,1,4.41-1.81,8.14,8.14,0,0,1,1.45.13,4.59,4.59,0,0,1,1.2.34V7.2A6.91,6.91,0,0,0,13.57,7a2.84,2.84,0,0,0-2.17.75,3.56,3.56,0,0,0-.72,2.5v1.1H13.3v3.05H10.68v9.71h8a5.46,5.46,0,0,0,5.45-5.45V5.45A5.46,5.46,0,0,0,18.64,0Z"/></svg>