<svg id="Layer_1" data-name="Layer 1" xmlns="http://www.w3.org/2000/svg" viewBox="0 0 25.63 26.44"><defs><style>.cls-1{fill:#002bc1;}</style></defs><title>潮健康_material</title><path class="cls-1" d="M12.81,0C5.74,0,0,5.14,0,11.48a11.3,11.3,0,0,0,6.38,9.88L4.82,24a1.62,1.62,0,0,0,1.4,2.45,1.51,1.51,0,0,0,.59-.11l10.74-4.14c.05,0,.08-.07.13-.09,4.66-1.72,8-5.82,8-10.62C25.63,5.14,19.89,0,12.81,0ZM7.31,15a.26.26,0,0,1-.26.26H2.84A.25.25,0,0,1,2.59,15V8.45a.26.26,0,0,1,.25-.26H4a.26.26,0,0,1,.26.26v5.13H7.05a.26.26,0,0,1,.26.26Zm2.77,0a.25.25,0,0,1-.26.26H8.62A.26.26,0,0,1,8.36,15V8.45a.26.26,0,0,1,.26-.26h1.2a.26.26,0,0,1,.26.26ZM17,15a.25.25,0,0,1-.25.26H15.52a.27.27,0,0,1-.22-.12L13,11.38V15a.25.25,0,0,1-.25.26H11.53a.26.26,0,0,1-.26-.26V8.45a.26.26,0,0,1,.26-.26h1.26a.29.29,0,0,1,.22.12L15.31,12V8.45a.26.26,0,0,1,.26-.26h1.17a.26.26,0,0,1,.25.26Zm5.66-4.18a.26.26,0,0,1,.26.26v1.07a.26.26,0,0,1-.26.26H19.87v1.26h3.2a.26.26,0,0,1,.26.26V15a.26.26,0,0,1-.26.26H18.43a.26.26,0,0,1-.26-.26V8.45a.26.26,0,0,1,.26-.26h4.64a.26.26,0,0,1,.26.26V9.52a.26.26,0,0,1-.26.26h-3.2v1Z"/></svg>