<svg id="Layer_1" data-name="Layer 1" xmlns="http://www.w3.org/2000/svg" viewBox="0 0 22.27 22.26"><defs><style>.cls-1{fill:#002bc1;}</style></defs><title>潮健康_material</title><path class="cls-1" d="M17.53,22.26a.46.46,0,0,1-.29-.49,16.79,16.79,0,0,0-.49-3.93,16.8,16.8,0,0,0-3.46-6.79A16.71,16.71,0,0,0,7.06,6.4,15.56,15.56,0,0,0,2.32,5.13C1.7,5.06,1.07,5,.44,5,.11,5,0,4.87,0,4.54V.46C0,.13.13,0,.44,0A21.6,21.6,0,0,1,12.6,3.77a21.73,21.73,0,0,1,8.23,10.39,21,21,0,0,1,1.26,5.18c.07.7.1,1.41.14,2.12a1.85,1.85,0,0,0,0,.23v.57Z"/><path class="cls-1" d="M10.39,22.26c-.24-.09-.29-.28-.3-.52A9.6,9.6,0,0,0,4.7,13.18a8.83,8.83,0,0,0-4-1c-.68,0-.7-.05-.7-.72V7.73c0-.35.13-.47.48-.46A14.35,14.35,0,0,1,8.31,9.64,14.46,14.46,0,0,1,14.43,18,13.06,13.06,0,0,1,15,21.4c0,.11,0,.23,0,.35,0,.3,0,.37-.28.51Z"/><path class="cls-1" d="M3,22.26a9.12,9.12,0,0,1-1.19-.36,3.28,3.28,0,0,1-1.8-3.53,3.3,3.3,0,1,1,3.64,3.85l-.17,0Z"/></svg>