<svg id="Layer_1" data-name="Layer 1" xmlns="http://www.w3.org/2000/svg" viewBox="0 0 606 87"><defs><style>.cls-1{fill:#0033b8;}.cls-2{fill:#999a9a;}.cls-3{opacity:0.5;}.cls-4{fill:#fff;}</style></defs><title>潮健康_material</title><path class="cls-1" d="M159.19,86.72H115.55a7.18,7.18,0,0,1-7.18-7.17V42.94h-3.53V36.77h5.51a4.2,4.2,0,0,1,4.19,4.2V79.55a1,1,0,0,0,1,1h43.64Z"/><rect class="cls-1" x="119.74" y="34.44" width="30.35" height="7.2"/><rect class="cls-1" x="134.75" y="17.84" width="6.17" height="60.6"/><path class="cls-2" d="M115.13,28.75a4.44,4.44,0,1,1-4.44-4.44A4.44,4.44,0,0,1,115.13,28.75Z"/><rect class="cls-1" x="95.48" y="36.94" width="6.17" height="50.05"/><circle class="cls-2" cx="98.56" cy="28.75" r="4.44"/><path class="cls-1" d="M145.87,52.23H119.21V46.06h26.66a8,8,0,0,0,0-16H119.21V23.88h26.66a14.18,14.18,0,0,1,0,28.35Z"/><rect class="cls-1" x="119.74" y="57.11" width="39.45" height="6.17"/><rect class="cls-1" x="119.74" y="67.98" width="39.45" height="6.17"/><rect class="cls-1" x="177.8" y="46.78" width="55.64" height="6.17"/><path class="cls-1" d="M174.47,87H168.3V29.72a5.92,5.92,0,0,1,5.91-5.92h59.23V30h-59Z"/><rect class="cls-1" x="201.87" y="17.84" width="6.17" height="69.15"/><polygon class="cls-2" points="186.12 86.6 181.75 82.24 187.49 76.5 181.75 70.77 186.12 66.4 196.22 76.5 186.12 86.6"/><polygon class="cls-1" points="225.44 86.6 215.34 76.5 225.44 66.4 229.8 70.77 224.06 76.5 229.8 82.24 225.44 86.6"/><path class="cls-1" d="M216.06,64.51H177.8V58.34h38.26a8.47,8.47,0,0,0,0-16.94H177.8V35.23h38.26a14.64,14.64,0,0,1,0,29.28Z"/><rect class="cls-1" x="0.47" y="10.12" width="21.43" height="8.08"/><polygon class="cls-1" points="44.06 58.5 35.99 58.5 35.99 68.76 24.9 68.76 24.9 76.84 35.99 76.84 35.99 87.11 44.06 87.11 44.06 76.84 54 76.84 54 68.76 44.06 68.76 44.06 58.5"/><polygon class="cls-1" points="35.99 23.62 44.06 23.62 44.06 18.2 54 18.2 54 10.12 44.06 10.12 44.06 1.2 35.99 1.2 35.99 10.12 24.9 10.12 24.9 18.2 35.99 18.2 35.99 23.62"/><path class="cls-1" d="M24.9,40.86h5.82a.86.86,0,0,0,.8-.54l3-7.35a1.73,1.73,0,0,1,3.28.22l4.15,16a.87.87,0,0,0,1.65.1l3-7.34a1.74,1.74,0,0,1,1.61-1.09H54V30.23A3.26,3.26,0,0,0,50.73,27H28.17a3.26,3.26,0,0,0-3.27,3.27Z"/><path class="cls-1" d="M47.37,42.27l-3,7.35a1.7,1.7,0,0,1-1.6,1.08h-.12a1.73,1.73,0,0,1-1.57-1.3L37,33.41a.86.86,0,0,0-1.64-.11l-3,7.35a1.75,1.75,0,0,1-1.61,1.08H24.9V52.36a3.27,3.27,0,0,0,3.27,3.28H50.73A3.27,3.27,0,0,0,54,52.36V41.73H48.18A.87.87,0,0,0,47.37,42.27Z"/><path class="cls-1" d="M71.18.32A13.94,13.94,0,0,0,57.26,14.24V87.11h3.61V14.24a10.32,10.32,0,0,1,20.63,0V87.12h3.6V14.24A13.93,13.93,0,0,0,71.18.32Z"/><path class="cls-1" d="M71.18,4.79a9.45,9.45,0,0,0-9.44,9.45V87.11h3.6V45.34H77V87.12h3.6V14.24A9.46,9.46,0,0,0,71.18,4.79ZM77,37.26H65.34V28.68H77ZM65.34,20.6V14.24a5.85,5.85,0,0,1,11.69,0V20.6Z"/><path class="cls-1" d="M19.46,40a2.21,2.21,0,0,1-1.58-.66l-6.79-6.79L4.3,39.35a2.24,2.24,0,0,1-3.17-3.17L9.5,27.81a2.23,2.23,0,0,1,3.17,0l8.38,8.37A2.25,2.25,0,0,1,19.46,40Z"/><path class="cls-2" d="M19.46,54.23a2.24,2.24,0,0,1-1.58-.65l-6.79-6.79L4.3,53.58a2.24,2.24,0,0,1-3.17-3.17L9.5,42a2.25,2.25,0,0,1,3.17,0l8.38,8.38a2.25,2.25,0,0,1,0,3.17A2.28,2.28,0,0,1,19.46,54.23Z"/><path class="cls-1" d="M19.46,68.46a2.21,2.21,0,0,1-1.58-.66L11.09,61,4.3,67.8a2.24,2.24,0,1,1-3.17-3.17L9.5,56.26a2.23,2.23,0,0,1,3.17,0l8.38,8.37a2.25,2.25,0,0,1-1.59,3.83Z"/><path class="cls-2" d="M19.46,82.68A2.2,2.2,0,0,1,17.88,82l-6.79-6.79L4.3,82a2.24,2.24,0,0,1-3.17-3.17L9.5,70.49a2.23,2.23,0,0,1,3.17,0l8.38,8.37a2.24,2.24,0,0,1-1.59,3.82Z"/><g class="cls-3"><path class="cls-4" d="M353.41,72a15,15,0,1,1-15-15A15,15,0,0,1,353.41,72Zm-26.89,0a11.92,11.92,0,1,0,11.92-11.92A11.93,11.93,0,0,0,326.52,72Z"/></g><path class="cls-4" d="M353.41,72a15,15,0,1,1-30,0,1.53,1.53,0,0,1,3.06,0,11.92,11.92,0,1,0,23.84,0,1.53,1.53,0,0,1,3.05,0Z"/><g class="cls-3"><path class="cls-4" d="M353.41,33.58a15,15,0,1,1-15-15A15,15,0,0,1,353.41,33.58Zm-26.89,0a11.92,11.92,0,1,0,11.92-11.92A11.93,11.93,0,0,0,326.52,33.58Z"/></g><path class="cls-4" d="M353.41,33.58a15,15,0,0,1-30,0,1.53,1.53,0,1,1,3.06,0,11.92,11.92,0,1,0,11.92-11.92,1.53,1.53,0,1,1,0-3.06A15,15,0,0,1,353.41,33.58Z"/><g class="cls-3"><path class="cls-4" d="M316.19,72a15,15,0,1,1-15-15A15,15,0,0,1,316.19,72Zm-26.9,0a11.92,11.92,0,1,0,11.92-11.92A11.94,11.94,0,0,0,289.29,72Z"/></g><path class="cls-4" d="M302.74,85.44A1.53,1.53,0,0,1,301.21,87a15,15,0,0,1-15-15,1.53,1.53,0,0,1,3.05,0,11.94,11.94,0,0,0,11.92,11.93A1.53,1.53,0,0,1,302.74,85.44Z"/><g class="cls-3"><path class="cls-4" d="M316.19,33.58a15,15,0,1,1-15-15A15,15,0,0,1,316.19,33.58Zm-26.9,0a11.92,11.92,0,1,0,11.92-11.92A11.94,11.94,0,0,0,289.29,33.58Z"/></g><path class="cls-4" d="M316.19,33.58a15,15,0,0,1-29.95,0,1.53,1.53,0,1,1,3.05,0,11.92,11.92,0,1,0,11.92-11.92,1.53,1.53,0,0,1,0-3.06A15,15,0,0,1,316.19,33.58Z"/><g class="cls-3"><path class="cls-4" d="M279,72a15,15,0,1,1-15-15A15,15,0,0,1,279,72Zm-26.9,0A11.93,11.93,0,1,0,264,60.07,11.94,11.94,0,0,0,252.06,72Z"/></g><path class="cls-4" d="M279,72A15,15,0,1,1,249,72a1.53,1.53,0,0,1,3.05,0,11.93,11.93,0,1,0,23.85,0,1.53,1.53,0,0,1,3,0Z"/><g class="cls-3"><path class="cls-4" d="M279,33.58a15,15,0,1,1-15-15A15,15,0,0,1,279,33.58Zm-26.9,0A11.93,11.93,0,1,0,264,21.66,11.94,11.94,0,0,0,252.06,33.58Z"/></g><path class="cls-4" d="M279,33.58a1.53,1.53,0,0,1-3,0A11.93,11.93,0,0,0,264,21.66a1.53,1.53,0,0,1,0-3.06A15,15,0,0,1,279,33.58Z"/><path class="cls-4" d="M265.51,47A1.52,1.52,0,0,1,264,48.55a15,15,0,0,1-15-15,1.53,1.53,0,1,1,3.05,0A11.94,11.94,0,0,0,264,45.5,1.52,1.52,0,0,1,265.51,47Z"/><path class="cls-4" d="M389.25,33.2a2.34,2.34,0,0,1-1.66-.69l-7.12-7.12-7.11,7.12A2.35,2.35,0,0,1,370,29.18l8.78-8.77a2.34,2.34,0,0,1,3.32,0l8.78,8.77a2.36,2.36,0,0,1-1.66,4Z"/><path class="cls-4" d="M389.25,46.67a2.37,2.37,0,0,1-1.66-.68l-7.12-7.12L373.36,46A2.35,2.35,0,1,1,370,42.66l8.78-8.78a2.36,2.36,0,0,1,3.32,0l8.78,8.78a2.35,2.35,0,0,1-1.66,4Z"/><path class="cls-4" d="M389.25,60.15a2.34,2.34,0,0,1-1.66-.69l-7.12-7.11-7.11,7.11A2.35,2.35,0,0,1,370,56.14l8.78-8.78a2.34,2.34,0,0,1,3.32,0l8.78,8.78a2.35,2.35,0,0,1-1.66,4Z"/><path class="cls-4" d="M389.25,73.63a2.34,2.34,0,0,1-1.66-.69l-7.12-7.11-7.11,7.11A2.35,2.35,0,0,1,370,69.62l8.78-8.78a2.34,2.34,0,0,1,3.32,0l8.78,8.78a2.35,2.35,0,0,1-1.66,4Z"/><path class="cls-4" d="M389.25,87.11a2.34,2.34,0,0,1-1.66-.69l-7.12-7.12-7.11,7.12A2.35,2.35,0,0,1,370,83.09l8.78-8.77a2.34,2.34,0,0,1,3.32,0l8.78,8.77a2.36,2.36,0,0,1-1.66,4Z"/><path class="cls-1" d="M437,26.89l-3.88,2.94a9.17,9.17,0,0,0-3-2.6,8.49,8.49,0,0,0-3.47-1,9.08,9.08,0,0,0-3.5.45,9.42,9.42,0,0,0-3.1,1.75,9,9,0,0,0-2.2,2.87,9.32,9.32,0,0,0,0,7.69,8.91,8.91,0,0,0,2.2,2.88,9.22,9.22,0,0,0,3.1,1.74,9.09,9.09,0,0,0,3.5.46,8.78,8.78,0,0,0,6.47-3.61L437,43.38a13.39,13.39,0,0,1-4.6,4,13.66,13.66,0,0,1-5.37,1.52,14.36,14.36,0,0,1-5.43-.69,13.67,13.67,0,0,1-8.17-7.12,13.48,13.48,0,0,1-1.28-6,13.37,13.37,0,0,1,4.67-10.41A14.1,14.1,0,0,1,421.63,22a13.61,13.61,0,0,1,10.8.85A13.36,13.36,0,0,1,437,26.89Z"/><path class="cls-1" d="M456.93,21.38a13.49,13.49,0,0,1,5.37,1.09,13.85,13.85,0,0,1,7.33,7.34,13.77,13.77,0,0,1,0,10.74,13.85,13.85,0,0,1-2.95,4.38,14,14,0,0,1-4.38,3,13.77,13.77,0,0,1-10.74,0,14.23,14.23,0,0,1-4.4-3,13.76,13.76,0,0,1,0-19.5,14.08,14.08,0,0,1,4.4-3A13.46,13.46,0,0,1,456.93,21.38Zm8.92,13.8a8.8,8.8,0,0,0-.69-3.49,9.13,9.13,0,0,0-1.92-2.84,9.24,9.24,0,0,0-2.85-1.9,8.7,8.7,0,0,0-3.44-.69,8.79,8.79,0,0,0-3.48.69,9.24,9.24,0,0,0-2.85,1.9A8.81,8.81,0,0,0,448,35.18a8.65,8.65,0,0,0,.69,3.46,9,9,0,0,0,4.77,4.76,8.9,8.9,0,0,0,6.92,0,9,9,0,0,0,2.85-1.92,9.25,9.25,0,0,0,1.92-2.84A8.65,8.65,0,0,0,465.85,35.18Z"/><path class="cls-1" d="M491.06,21.38a13.49,13.49,0,0,1,5.37,1.09,13.88,13.88,0,0,1,4.38,3,14,14,0,0,1,2.95,4.38,13.77,13.77,0,0,1,0,10.74,13.79,13.79,0,0,1-7.33,7.33,13.77,13.77,0,0,1-10.74,0,14.23,14.23,0,0,1-4.4-3,13.76,13.76,0,0,1,0-19.5,14.08,14.08,0,0,1,4.4-3A13.42,13.42,0,0,1,491.06,21.38ZM500,35.18a8.64,8.64,0,0,0-.7-3.49,8.93,8.93,0,0,0-1.91-2.84,9.24,9.24,0,0,0-2.85-1.9,8.7,8.7,0,0,0-3.44-.69,8.79,8.79,0,0,0-3.48.69,9.12,9.12,0,0,0-2.85,1.9,8.81,8.81,0,0,0-2.61,6.33,8.65,8.65,0,0,0,.69,3.46,9,9,0,0,0,4.77,4.76,8.9,8.9,0,0,0,6.92,0,9,9,0,0,0,2.85-1.92,9,9,0,0,0,1.91-2.84A8.49,8.49,0,0,0,500,35.18Z"/><path class="cls-1" d="M524.63,44.1,523.44,49H511.79V21.38h4.87V44.1Z"/><path class="cls-1" d="M430.41,70.85V59.52h4.88V87.11h-4.88V75.73h-11.5V87.11H414V59.52h4.87V70.85Z"/><path class="cls-1" d="M464.26,82.23l-1,4.88H444.36V59.56h19.82l-1.38,4.87H449.24v17.8Zm-2.73-10.62-1.47,4.87H447.65V71.61Z"/><path class="cls-1" d="M482.18,59.52l13,27.59h-5.39l-1.51-3.25H476.11l-1.5,3.25h-5.39ZM486,79l-3.8-8-3.77,8Z"/><path class="cls-1" d="M512.62,82.23l-1.19,4.88H499.78V59.52h4.87V82.23Z"/><path class="cls-1" d="M530.5,59.52l-1.11,4.87H524V87.11h-4.88V64.39H514l-1.07-4.87Z"/><path class="cls-1" d="M552.66,70.85V59.52h4.87V87.11h-4.87V75.73h-11.5V87.11h-4.87V59.52h4.87V70.85Z"/><path class="cls-4" d="M605.5,54.67a32.47,32.47,0,0,1-32.43,32.44V81.2a26.53,26.53,0,0,0,0-53V22.23A32.48,32.48,0,0,1,605.5,54.67Z"/></svg>