<svg id="Layer_1" data-name="Layer 1" xmlns="http://www.w3.org/2000/svg" viewBox="0 0 90.67 20.65"><defs><style>.cls-1{fill:#002bc1;}.cls-2{fill:#fff;}.cls-3{opacity:0.6;}</style></defs><title>潮健康_material</title><rect class="cls-1" width="90.67" height="20.65"/><path class="cls-2" d="M78.88,15.27a1.29,1.29,0,0,1,.38-.92l3.94-3.93L79.26,6.48A1.3,1.3,0,0,1,81.1,4.64L86,9.5a1.32,1.32,0,0,1,0,1.84L81.1,16.19a1.3,1.3,0,0,1-1.84,0A1.25,1.25,0,0,1,78.88,15.27Z"/><g class="cls-3"><path class="cls-2" d="M71.42,15.27a1.33,1.33,0,0,1,.38-.92l3.94-3.93L71.8,6.48a1.3,1.3,0,0,1,1.84-1.84L78.5,9.5a1.32,1.32,0,0,1,0,1.84l-4.86,4.85a1.3,1.3,0,0,1-2.22-.92Z"/></g><path class="cls-2" d="M64,15.27a1.33,1.33,0,0,1,.38-.92l3.94-3.93L64.34,6.48a1.3,1.3,0,0,1,1.84-1.84L71,9.5a1.3,1.3,0,0,1,0,1.84l-4.86,4.85A1.3,1.3,0,0,1,64,15.27Z"/><g class="cls-3"><path class="cls-2" d="M56.5,15.27a1.33,1.33,0,0,1,.38-.92l3.94-3.93L56.88,6.48a1.3,1.3,0,1,1,1.84-1.84L63.58,9.5a1.3,1.3,0,0,1,0,1.84l-4.86,4.85a1.3,1.3,0,0,1-2.22-.92Z"/></g><path class="cls-2" d="M49,15.27a1.33,1.33,0,0,1,.38-.92l3.94-3.93L49.42,6.48a1.3,1.3,0,0,1,1.84-1.84L56.12,9.5a1.3,1.3,0,0,1,0,1.84l-4.86,4.85A1.3,1.3,0,0,1,49,15.27Z"/><path class="cls-2" d="M9.12,16.66v-4.3a9.85,9.85,0,0,1-2,1.57,7.18,7.18,0,0,0-1-1.26,8.64,8.64,0,0,0,3.19-3H6.54V8.4H10l.2-.43.05-.13H7.45V6.66h3.19c.07-.24.11-.43.14-.56-1.09.05-2.15.06-3.19,0A3.48,3.48,0,0,0,7.31,5a61,61,0,0,0,9.15-.52l.92,1.11A45.59,45.59,0,0,1,12.49,6c0,.14-.09.34-.18.62h5.12V7.84H11.89c-.06.17-.13.36-.22.56h6.46V9.63h-7a3,3,0,0,1-.22.39l-.08.14h6.12v6.5H15.34v-.47H10.61v.47Zm1.49-4.76h4.73v-.56H10.61Zm0,1.54h4.73v-.57H10.61Zm0,1.57h4.73v-.6H10.61Z"/><path class="cls-2" d="M20.22,16.66a4.43,4.43,0,0,0-.44-.77,8.42,8.42,0,0,0-.53-.75,13.7,13.7,0,0,0,4.88-2.26A15.76,15.76,0,0,1,21.35,8H19.48V6.48H24.6V4.42h1.58V6.48h5.19V8H29.49a14.48,14.48,0,0,1-2.86,4.82,12.37,12.37,0,0,0,5,2.24,6.36,6.36,0,0,0-1.11,1.56A12.79,12.79,0,0,1,25.32,14,15.62,15.62,0,0,1,20.22,16.66Zm5.19-4.94A11.62,11.62,0,0,0,27.66,8H23.09A11.26,11.26,0,0,0,25.41,11.72Z"/><path class="cls-2" d="M37.61,16.6V15.27H32.54V14h5.07v-.57H33.94V9.21H43v4.26H39.25V14h5.14v1.23H39.25V16.6Zm-5-7.92V7.46h2.92a5.42,5.42,0,0,0-.39-.91l.3-.06h-2V5.28h4.2V4.42h1.64v.86h4.32V6.49H41.84l.08,0c-.23.44-.4.76-.51,1h2.92V8.68Zm2.84,2.18h6v-.63h-6Zm0,1.56h6v-.6h-6Zm1.74-5h2.6s0-.06,0-.12c.17-.38.29-.66.36-.85H36.75A3.6,3.6,0,0,1,37.18,7.46Z"/></svg>