<svg width="349" height="32" xmlns="http://www.w3.org/2000/svg">

 <g>
  <title>Layer 1</title>
  <text transform="matrix(1.74573 0 0 1.783 -24.4667 -10.0384)" stroke="#000" font-style="normal" font-weight="normal" xml:space="preserve" text-anchor="start" font-family="sans-serif" font-size="24" id="svg_2" y="23.23858" x="12.56478" stroke-width="0" fill="#000000">HOT VIDEO</text>
  <path id="svg_15" d="m246.33727,2.51516c0,0 -0.58548,-2.9959 2.57612,-1.84363l15.36652,15.19387c0.09015,0.01613 -15.60072,15.45659 -15.69087,15.44045c-0.6293,0.44092 -3.14338,0.04936 -2.72015,-2.51886l12.79041,-13.15206l-12.32203,-13.11978z" fill="#000000"/>
  <path id="svg_22" d="m267.34536,2.51516c0,0 -0.58548,-2.99591 2.57612,-1.84363l15.36652,15.19387c0.09015,0.01613 -15.60072,15.45659 -15.69087,15.44045c-0.6293,0.44092 -3.14338,0.04936 -2.72015,-2.51886l12.79041,-13.15205l-12.32203,-13.11978z" fill="#000000"/>
  <path id="svg_23" d="m288.92902,2.51516c0,0 -0.58548,-2.99591 2.57612,-1.84363l15.36652,15.19387c0.09015,0.01613 -15.60072,15.45659 -15.69087,15.44045c-0.6293,0.44092 -3.14338,0.04936 -2.72015,-2.51886l12.79041,-13.15205l-12.32203,-13.11978z" fill="#000000"/>
  <path id="svg_24" d="m309.93711,2.51516c0,0 -0.58548,-2.99591 2.57612,-1.84363l15.36652,15.19387c0.09015,0.01613 -15.60072,15.45659 -15.69087,15.44045c-0.6293,0.44092 -3.14338,0.04936 -2.72015,-2.51886l12.79041,-13.15205l-12.32203,-13.11978z" fill="#000000"/>
  <path id="svg_26" d="m330.94521,2.51516c0,0 -0.58548,-2.99591 2.57612,-1.84363l15.36652,15.19387c0.09015,0.01613 -15.60072,15.45659 -15.69087,15.44045c-0.6293,0.44092 -3.14338,0.04936 -2.72015,-2.51886l12.79041,-13.15205l-12.32203,-13.11978z" fill="#000000"/>
 </g>
</svg>