<svg id="Layer_1" data-name="Layer 1" xmlns="http://www.w3.org/2000/svg" viewBox="0 0 24.05 24.05"><defs><style>.cls-1{fill:#002bc1;}</style></defs><title>潮健康_material</title><path class="cls-1" d="M21.07.58a7.68,7.68,0,0,0-.79-.32A5.5,5.5,0,0,0,18.7,0H5.35A5.37,5.37,0,0,0,3.27.42a4.52,4.52,0,0,0-.69.36A5.32,5.32,0,0,0,0,5.35V18.7a5.36,5.36,0,0,0,5.35,5.35H18.7a5.36,5.36,0,0,0,5.35-5.35V8.77h0V5.35A5.32,5.32,0,0,0,21.07.58Zm-6,11.64a3,3,0,1,1-3-3A3,3,0,0,1,15.05,12.22Zm.34-5.83V3.08h3.32V6.39ZM21.26,18.7a2.56,2.56,0,0,1-2.56,2.56H5.35A2.56,2.56,0,0,1,2.79,18.7V8.77h4.1a6.19,6.19,0,1,0,10.27,0h4.1Z"/></svg>