<svg id="Layer_1" data-name="Layer 1" xmlns="http://www.w3.org/2000/svg" viewBox="0 0 68.53 17.22"><defs><style>.cls-1{fill:#0033b8;}</style></defs><title>潮健康_material</title><path class="cls-1" d="M3.09,11.42v-4A9.46,9.46,0,0,1,1.22,8.87,6.72,6.72,0,0,0,.3,7.7a8.07,8.07,0,0,0,3-2.84H.68V3.72H3.89l.18-.41,0-.12H1.53V2.1h3c.06-.23.11-.41.13-.53-1,0-2,.05-3,0A3.54,3.54,0,0,0,1.4.52,56.67,56.67,0,0,0,9.94,0l.85,1a40.49,40.49,0,0,1-4.55.44c0,.13-.09.33-.17.59h4.77V3.19H5.68c-.06.16-.13.34-.21.53h6V4.86H4.93l-.2.37a1.17,1.17,0,0,0-.08.13h5.71v6.06H8.89V11H4.48v.44ZM4.48,7H8.89V6.46H4.48Zm0,1.44H8.89V7.88H4.48Zm0,1.46H8.89V9.32H4.48Z"/><path class="cls-1" d="M14.67,11.42a4.28,4.28,0,0,0-.42-.72,5.57,5.57,0,0,0-.5-.7,12.83,12.83,0,0,0,4.56-2.1,14.68,14.68,0,0,1-2.59-4.56H14V1.92h4.78V0h1.47V1.92h4.84V3.34H23.31a13.23,13.23,0,0,1-2.67,4.49,11.62,11.62,0,0,0,4.64,2.1,5.94,5.94,0,0,0-1,1.45A12,12,0,0,1,19.42,9,14.77,14.77,0,0,1,14.67,11.42Zm4.84-4.61A10.92,10.92,0,0,0,21.6,3.34H17.34A10.37,10.37,0,0,0,19.51,6.81Z"/><path class="cls-1" d="M32.1,11.37V10.12H27.38V9H32.1V8.44H28.68v-4h8.44v4H33.63V9h4.8v1.14h-4.8v1.25ZM27.42,4V2.84h2.73A5,5,0,0,0,29.79,2l.28-.05H28.18V.8H32.1V0h1.53V.8h4V1.94H36.12l-.47.89h2.71V4Zm2.66,2h5.57V5.42H30.08Zm0,1.46h5.57V6.91H30.08ZM31.7,2.84h2.42l.05-.11c.16-.36.27-.62.33-.79H31.3A3,3,0,0,1,31.7,2.84Z"/><polygon class="cls-1" points="68.53 17.22 0 17.22 0 16.25 66.2 16.25 58.51 8.56 59.19 7.88 68.53 17.22"/></svg>